<mxfile host="app.diagrams.net" modified="2023-02-06T12:52:28.189Z" agent="5.0 (Windows)" etag="Lqy_ff7fSa-iER37mbP8" version="20.8.16" type="github">
  <diagram id="C5RBs43oDa-KdzZeNtuy" name="Page-1">
    <mxGraphModel dx="2919" dy="883" grid="1" gridSize="10" guides="1" tooltips="1" connect="1" arrows="1" fold="1" page="1" pageScale="1" pageWidth="1169" pageHeight="827" math="0" shadow="0">
      <root>
        <mxCell id="WIyWlLk6GJQsqaUBKTNV-0" />
        <mxCell id="WIyWlLk6GJQsqaUBKTNV-1" parent="WIyWlLk6GJQsqaUBKTNV-0" />
        <mxCell id="lZmtQ1H5wP_6aCsop2Vp-0" value="*" style="text;html=1;align=center;verticalAlign=middle;resizable=0;points=[];autosize=1;strokeColor=none;fillColor=none;" parent="WIyWlLk6GJQsqaUBKTNV-1" vertex="1">
          <mxGeometry x="-1130" y="10" width="30" height="30" as="geometry" />
        </mxCell>
        <mxCell id="lZmtQ1H5wP_6aCsop2Vp-1" value="Favoris" style="swimlane;fontStyle=1;align=center;verticalAlign=top;childLayout=stackLayout;horizontal=1;startSize=26;horizontalStack=0;resizeParent=1;resizeParentMax=0;resizeLast=0;collapsible=1;marginBottom=0;" parent="WIyWlLk6GJQsqaUBKTNV-1" vertex="1">
          <mxGeometry x="-1140" y="15" width="160" height="164" as="geometry" />
        </mxCell>
        <mxCell id="lZmtQ1H5wP_6aCsop2Vp-2" value="favoris_id" style="text;strokeColor=none;fillColor=none;align=left;verticalAlign=top;spacingLeft=4;spacingRight=4;overflow=hidden;rotatable=0;points=[[0,0.5],[1,0.5]];portConstraint=eastwest;" parent="lZmtQ1H5wP_6aCsop2Vp-1" vertex="1">
          <mxGeometry y="26" width="160" height="26" as="geometry" />
        </mxCell>
        <mxCell id="lZmtQ1H5wP_6aCsop2Vp-3" value="event_id" style="text;strokeColor=none;fillColor=none;align=left;verticalAlign=top;spacingLeft=4;spacingRight=4;overflow=hidden;rotatable=0;points=[[0,0.5],[1,0.5]];portConstraint=eastwest;" parent="lZmtQ1H5wP_6aCsop2Vp-1" vertex="1">
          <mxGeometry y="52" width="160" height="26" as="geometry" />
        </mxCell>
        <mxCell id="lZmtQ1H5wP_6aCsop2Vp-4" value="user_id" style="text;strokeColor=none;fillColor=none;align=left;verticalAlign=top;spacingLeft=4;spacingRight=4;overflow=hidden;rotatable=0;points=[[0,0.5],[1,0.5]];portConstraint=eastwest;" parent="lZmtQ1H5wP_6aCsop2Vp-1" vertex="1">
          <mxGeometry y="78" width="160" height="26" as="geometry" />
        </mxCell>
        <mxCell id="lZmtQ1H5wP_6aCsop2Vp-5" value="" style="line;strokeWidth=1;fillColor=none;align=left;verticalAlign=middle;spacingTop=-1;spacingLeft=3;spacingRight=3;rotatable=0;labelPosition=right;points=[];portConstraint=eastwest;strokeColor=inherit;" parent="lZmtQ1H5wP_6aCsop2Vp-1" vertex="1">
          <mxGeometry y="104" width="160" height="8" as="geometry" />
        </mxCell>
        <mxCell id="lZmtQ1H5wP_6aCsop2Vp-6" value="AddFavoris()" style="text;strokeColor=none;fillColor=none;align=left;verticalAlign=top;spacingLeft=4;spacingRight=4;overflow=hidden;rotatable=0;points=[[0,0.5],[1,0.5]];portConstraint=eastwest;" parent="lZmtQ1H5wP_6aCsop2Vp-1" vertex="1">
          <mxGeometry y="112" width="160" height="26" as="geometry" />
        </mxCell>
        <mxCell id="lZmtQ1H5wP_6aCsop2Vp-7" value="DeleteFavoris()" style="text;strokeColor=none;fillColor=none;align=left;verticalAlign=top;spacingLeft=4;spacingRight=4;overflow=hidden;rotatable=0;points=[[0,0.5],[1,0.5]];portConstraint=eastwest;" parent="lZmtQ1H5wP_6aCsop2Vp-1" vertex="1">
          <mxGeometry y="138" width="160" height="26" as="geometry" />
        </mxCell>
        <mxCell id="lZmtQ1H5wP_6aCsop2Vp-8" value="*" style="text;html=1;align=center;verticalAlign=middle;resizable=0;points=[];autosize=1;strokeColor=none;fillColor=none;" parent="WIyWlLk6GJQsqaUBKTNV-1" vertex="1">
          <mxGeometry x="-1110" y="200" width="30" height="30" as="geometry" />
        </mxCell>
        <mxCell id="lZmtQ1H5wP_6aCsop2Vp-9" value="Categorie" style="swimlane;fontStyle=1;align=center;verticalAlign=top;childLayout=stackLayout;horizontal=1;startSize=26;horizontalStack=0;resizeParent=1;resizeParentMax=0;resizeLast=0;collapsible=1;marginBottom=0;" parent="WIyWlLk6GJQsqaUBKTNV-1" vertex="1">
          <mxGeometry x="-1140" y="215" width="160" height="196" as="geometry" />
        </mxCell>
        <mxCell id="lZmtQ1H5wP_6aCsop2Vp-10" value="cat_id" style="text;strokeColor=none;fillColor=none;align=left;verticalAlign=top;spacingLeft=4;spacingRight=4;overflow=hidden;rotatable=0;points=[[0,0.5],[1,0.5]];portConstraint=eastwest;" parent="lZmtQ1H5wP_6aCsop2Vp-9" vertex="1">
          <mxGeometry y="26" width="160" height="26" as="geometry" />
        </mxCell>
        <mxCell id="lZmtQ1H5wP_6aCsop2Vp-11" value="cat_title" style="text;strokeColor=none;fillColor=none;align=left;verticalAlign=top;spacingLeft=4;spacingRight=4;overflow=hidden;rotatable=0;points=[[0,0.5],[1,0.5]];portConstraint=eastwest;" parent="lZmtQ1H5wP_6aCsop2Vp-9" vertex="1">
          <mxGeometry y="52" width="160" height="26" as="geometry" />
        </mxCell>
        <mxCell id="lZmtQ1H5wP_6aCsop2Vp-12" value="cat_parent&#xa;" style="text;strokeColor=none;fillColor=none;align=left;verticalAlign=top;spacingLeft=4;spacingRight=4;overflow=hidden;rotatable=0;points=[[0,0.5],[1,0.5]];portConstraint=eastwest;" parent="lZmtQ1H5wP_6aCsop2Vp-9" vertex="1">
          <mxGeometry y="78" width="160" height="26" as="geometry" />
        </mxCell>
        <mxCell id="lZmtQ1H5wP_6aCsop2Vp-13" value="" style="line;strokeWidth=1;fillColor=none;align=left;verticalAlign=middle;spacingTop=-1;spacingLeft=3;spacingRight=3;rotatable=0;labelPosition=right;points=[];portConstraint=eastwest;strokeColor=inherit;" parent="lZmtQ1H5wP_6aCsop2Vp-9" vertex="1">
          <mxGeometry y="104" width="160" height="8" as="geometry" />
        </mxCell>
        <mxCell id="lZmtQ1H5wP_6aCsop2Vp-14" value="Add categorie()" style="text;strokeColor=none;fillColor=none;align=left;verticalAlign=top;spacingLeft=4;spacingRight=4;overflow=hidden;rotatable=0;points=[[0,0.5],[1,0.5]];portConstraint=eastwest;" parent="lZmtQ1H5wP_6aCsop2Vp-9" vertex="1">
          <mxGeometry y="112" width="160" height="28" as="geometry" />
        </mxCell>
        <mxCell id="lZmtQ1H5wP_6aCsop2Vp-15" value="delete categorie()" style="text;strokeColor=none;fillColor=none;align=left;verticalAlign=top;spacingLeft=4;spacingRight=4;overflow=hidden;rotatable=0;points=[[0,0.5],[1,0.5]];portConstraint=eastwest;" parent="lZmtQ1H5wP_6aCsop2Vp-9" vertex="1">
          <mxGeometry y="140" width="160" height="28" as="geometry" />
        </mxCell>
        <mxCell id="lZmtQ1H5wP_6aCsop2Vp-16" value="update categorie()" style="text;strokeColor=none;fillColor=none;align=left;verticalAlign=top;spacingLeft=4;spacingRight=4;overflow=hidden;rotatable=0;points=[[0,0.5],[1,0.5]];portConstraint=eastwest;" parent="lZmtQ1H5wP_6aCsop2Vp-9" vertex="1">
          <mxGeometry y="168" width="160" height="28" as="geometry" />
        </mxCell>
        <mxCell id="lZmtQ1H5wP_6aCsop2Vp-17" value="Evenement" style="swimlane;fontStyle=0;align=center;verticalAlign=top;childLayout=stackLayout;horizontal=1;startSize=26;horizontalStack=0;resizeParent=1;resizeLast=0;collapsible=1;marginBottom=0;rounded=0;shadow=0;strokeWidth=1;" parent="WIyWlLk6GJQsqaUBKTNV-1" vertex="1">
          <mxGeometry x="-940" y="20" width="170" height="580" as="geometry">
            <mxRectangle x="550" y="140" width="160" height="26" as="alternateBounds" />
          </mxGeometry>
        </mxCell>
        <mxCell id="lZmtQ1H5wP_6aCsop2Vp-18" value="id" style="text;align=left;verticalAlign=top;spacingLeft=4;spacingRight=4;overflow=hidden;rotatable=0;points=[[0,0.5],[1,0.5]];portConstraint=eastwest;" parent="lZmtQ1H5wP_6aCsop2Vp-17" vertex="1">
          <mxGeometry y="26" width="170" height="26" as="geometry" />
        </mxCell>
        <mxCell id="lZmtQ1H5wP_6aCsop2Vp-19" value="titre de l&#39;event" style="text;align=left;verticalAlign=top;spacingLeft=4;spacingRight=4;overflow=hidden;rotatable=0;points=[[0,0.5],[1,0.5]];portConstraint=eastwest;rounded=0;shadow=0;html=0;" parent="lZmtQ1H5wP_6aCsop2Vp-17" vertex="1">
          <mxGeometry y="52" width="170" height="26" as="geometry" />
        </mxCell>
        <mxCell id="lZmtQ1H5wP_6aCsop2Vp-20" value="description" style="text;align=left;verticalAlign=top;spacingLeft=4;spacingRight=4;overflow=hidden;rotatable=0;points=[[0,0.5],[1,0.5]];portConstraint=eastwest;rounded=0;shadow=0;html=0;" parent="lZmtQ1H5wP_6aCsop2Vp-17" vertex="1">
          <mxGeometry y="78" width="170" height="26" as="geometry" />
        </mxCell>
        <mxCell id="lZmtQ1H5wP_6aCsop2Vp-21" value="date_debut" style="text;align=left;verticalAlign=top;spacingLeft=4;spacingRight=4;overflow=hidden;rotatable=0;points=[[0,0.5],[1,0.5]];portConstraint=eastwest;rounded=0;shadow=0;html=0;" parent="lZmtQ1H5wP_6aCsop2Vp-17" vertex="1">
          <mxGeometry y="104" width="170" height="26" as="geometry" />
        </mxCell>
        <mxCell id="lZmtQ1H5wP_6aCsop2Vp-22" value="date_fin" style="text;align=left;verticalAlign=top;spacingLeft=4;spacingRight=4;overflow=hidden;rotatable=0;points=[[0,0.5],[1,0.5]];portConstraint=eastwest;rounded=0;shadow=0;html=0;" parent="lZmtQ1H5wP_6aCsop2Vp-17" vertex="1">
          <mxGeometry y="130" width="170" height="26" as="geometry" />
        </mxCell>
        <mxCell id="lZmtQ1H5wP_6aCsop2Vp-23" value="categorie" style="text;align=left;verticalAlign=top;spacingLeft=4;spacingRight=4;overflow=hidden;rotatable=0;points=[[0,0.5],[1,0.5]];portConstraint=eastwest;" parent="lZmtQ1H5wP_6aCsop2Vp-17" vertex="1">
          <mxGeometry y="156" width="170" height="26" as="geometry" />
        </mxCell>
        <mxCell id="lZmtQ1H5wP_6aCsop2Vp-24" value="seating map" style="text;align=left;verticalAlign=top;spacingLeft=4;spacingRight=4;overflow=hidden;rotatable=0;points=[[0,0.5],[1,0.5]];portConstraint=eastwest;" parent="lZmtQ1H5wP_6aCsop2Vp-17" vertex="1">
          <mxGeometry y="182" width="170" height="26" as="geometry" />
        </mxCell>
        <mxCell id="lZmtQ1H5wP_6aCsop2Vp-25" value="image_id&#xa;" style="text;align=left;verticalAlign=top;spacingLeft=4;spacingRight=4;overflow=hidden;rotatable=0;points=[[0,0.5],[1,0.5]];portConstraint=eastwest;" parent="lZmtQ1H5wP_6aCsop2Vp-17" vertex="1">
          <mxGeometry y="208" width="170" height="26" as="geometry" />
        </mxCell>
        <mxCell id="lZmtQ1H5wP_6aCsop2Vp-26" value="superviseur" style="text;align=left;verticalAlign=top;spacingLeft=4;spacingRight=4;overflow=hidden;rotatable=0;points=[[0,0.5],[1,0.5]];portConstraint=eastwest;" parent="lZmtQ1H5wP_6aCsop2Vp-17" vertex="1">
          <mxGeometry y="234" width="170" height="26" as="geometry" />
        </mxCell>
        <mxCell id="lZmtQ1H5wP_6aCsop2Vp-27" value="invité" style="text;align=left;verticalAlign=top;spacingLeft=4;spacingRight=4;overflow=hidden;rotatable=0;points=[[0,0.5],[1,0.5]];portConstraint=eastwest;" parent="lZmtQ1H5wP_6aCsop2Vp-17" vertex="1">
          <mxGeometry y="260" width="170" height="26" as="geometry" />
        </mxCell>
        <mxCell id="lZmtQ1H5wP_6aCsop2Vp-28" value="Portier" style="text;align=left;verticalAlign=top;spacingLeft=4;spacingRight=4;overflow=hidden;rotatable=0;points=[[0,0.5],[1,0.5]];portConstraint=eastwest;" parent="lZmtQ1H5wP_6aCsop2Vp-17" vertex="1">
          <mxGeometry y="286" width="170" height="26" as="geometry" />
        </mxCell>
        <mxCell id="lZmtQ1H5wP_6aCsop2Vp-29" value="cat_id" style="text;align=left;verticalAlign=top;spacingLeft=4;spacingRight=4;overflow=hidden;rotatable=0;points=[[0,0.5],[1,0.5]];portConstraint=eastwest;" parent="lZmtQ1H5wP_6aCsop2Vp-17" vertex="1">
          <mxGeometry y="312" width="170" height="40" as="geometry" />
        </mxCell>
        <mxCell id="lZmtQ1H5wP_6aCsop2Vp-30" value="place_id" style="text;align=left;verticalAlign=top;spacingLeft=4;spacingRight=4;overflow=hidden;rotatable=0;points=[[0,0.5],[1,0.5]];portConstraint=eastwest;" parent="lZmtQ1H5wP_6aCsop2Vp-17" vertex="1">
          <mxGeometry y="352" width="170" height="40" as="geometry" />
        </mxCell>
        <mxCell id="lZmtQ1H5wP_6aCsop2Vp-31" value="Organizateur" style="text;align=left;verticalAlign=top;spacingLeft=4;spacingRight=4;overflow=hidden;rotatable=0;points=[[0,0.5],[1,0.5]];portConstraint=eastwest;" parent="lZmtQ1H5wP_6aCsop2Vp-17" vertex="1">
          <mxGeometry y="392" width="170" height="40" as="geometry" />
        </mxCell>
        <mxCell id="lZmtQ1H5wP_6aCsop2Vp-32" value="" style="endArrow=none;html=1;rounded=0;entryX=1.009;entryY=0.692;entryDx=0;entryDy=0;entryPerimeter=0;" parent="lZmtQ1H5wP_6aCsop2Vp-17" target="lZmtQ1H5wP_6aCsop2Vp-31" edge="1">
          <mxGeometry width="50" height="50" relative="1" as="geometry">
            <mxPoint y="420" as="sourcePoint" />
            <mxPoint x="160" y="420" as="targetPoint" />
            <Array as="points">
              <mxPoint x="75" y="420" />
            </Array>
          </mxGeometry>
        </mxCell>
        <mxCell id="lZmtQ1H5wP_6aCsop2Vp-33" value="DeletePost" style="text;strokeColor=none;fillColor=none;align=left;verticalAlign=top;spacingLeft=4;spacingRight=4;overflow=hidden;rotatable=0;points=[[0,0.5],[1,0.5]];portConstraint=eastwest;" parent="lZmtQ1H5wP_6aCsop2Vp-17" vertex="1">
          <mxGeometry y="432" width="170" height="26" as="geometry" />
        </mxCell>
        <mxCell id="lZmtQ1H5wP_6aCsop2Vp-34" value="EditPost" style="text;strokeColor=none;fillColor=none;align=left;verticalAlign=top;spacingLeft=4;spacingRight=4;overflow=hidden;rotatable=0;points=[[0,0.5],[1,0.5]];portConstraint=eastwest;" parent="lZmtQ1H5wP_6aCsop2Vp-17" vertex="1">
          <mxGeometry y="458" width="170" height="26" as="geometry" />
        </mxCell>
        <mxCell id="lZmtQ1H5wP_6aCsop2Vp-35" value="addPost" style="text;strokeColor=none;fillColor=none;align=left;verticalAlign=top;spacingLeft=4;spacingRight=4;overflow=hidden;rotatable=0;points=[[0,0.5],[1,0.5]];portConstraint=eastwest;" parent="lZmtQ1H5wP_6aCsop2Vp-17" vertex="1">
          <mxGeometry y="484" width="170" height="26" as="geometry" />
        </mxCell>
        <mxCell id="lZmtQ1H5wP_6aCsop2Vp-36" value="searchPost" style="text;strokeColor=none;fillColor=none;align=left;verticalAlign=top;spacingLeft=4;spacingRight=4;overflow=hidden;rotatable=0;points=[[0,0.5],[1,0.5]];portConstraint=eastwest;" parent="lZmtQ1H5wP_6aCsop2Vp-17" vertex="1">
          <mxGeometry y="510" width="170" height="26" as="geometry" />
        </mxCell>
        <mxCell id="lZmtQ1H5wP_6aCsop2Vp-57" value="Ticket" style="swimlane;fontStyle=1;align=center;verticalAlign=top;childLayout=stackLayout;horizontal=1;startSize=26;horizontalStack=0;resizeParent=1;resizeParentMax=0;resizeLast=0;collapsible=1;marginBottom=0;" parent="WIyWlLk6GJQsqaUBKTNV-1" vertex="1">
          <mxGeometry x="-1130" y="470" width="160" height="346" as="geometry" />
        </mxCell>
        <mxCell id="lZmtQ1H5wP_6aCsop2Vp-58" value="TypeTicket&#xa;" style="text;strokeColor=none;fillColor=none;align=left;verticalAlign=top;spacingLeft=4;spacingRight=4;overflow=hidden;rotatable=0;points=[[0,0.5],[1,0.5]];portConstraint=eastwest;" parent="lZmtQ1H5wP_6aCsop2Vp-57" vertex="1">
          <mxGeometry y="26" width="160" height="26" as="geometry" />
        </mxCell>
        <mxCell id="lZmtQ1H5wP_6aCsop2Vp-59" value="price" style="text;strokeColor=none;fillColor=none;align=left;verticalAlign=top;spacingLeft=4;spacingRight=4;overflow=hidden;rotatable=0;points=[[0,0.5],[1,0.5]];portConstraint=eastwest;" parent="lZmtQ1H5wP_6aCsop2Vp-57" vertex="1">
          <mxGeometry y="52" width="160" height="26" as="geometry" />
        </mxCell>
        <mxCell id="lZmtQ1H5wP_6aCsop2Vp-60" value="eventId" style="text;strokeColor=none;fillColor=none;align=left;verticalAlign=top;spacingLeft=4;spacingRight=4;overflow=hidden;rotatable=0;points=[[0,0.5],[1,0.5]];portConstraint=eastwest;" parent="lZmtQ1H5wP_6aCsop2Vp-57" vertex="1">
          <mxGeometry y="78" width="160" height="26" as="geometry" />
        </mxCell>
        <mxCell id="lZmtQ1H5wP_6aCsop2Vp-61" value="seatNumber" style="text;strokeColor=none;fillColor=none;align=left;verticalAlign=top;spacingLeft=4;spacingRight=4;overflow=hidden;rotatable=0;points=[[0,0.5],[1,0.5]];portConstraint=eastwest;" parent="lZmtQ1H5wP_6aCsop2Vp-57" vertex="1">
          <mxGeometry y="104" width="160" height="26" as="geometry" />
        </mxCell>
        <mxCell id="lZmtQ1H5wP_6aCsop2Vp-62" value="purchase_date" style="text;strokeColor=none;fillColor=none;align=left;verticalAlign=top;spacingLeft=4;spacingRight=4;overflow=hidden;rotatable=0;points=[[0,0.5],[1,0.5]];portConstraint=eastwest;" parent="lZmtQ1H5wP_6aCsop2Vp-57" vertex="1">
          <mxGeometry y="130" width="160" height="26" as="geometry" />
        </mxCell>
        <mxCell id="lZmtQ1H5wP_6aCsop2Vp-63" value="NbrTicket" style="text;strokeColor=none;fillColor=none;align=left;verticalAlign=top;spacingLeft=4;spacingRight=4;overflow=hidden;rotatable=0;points=[[0,0.5],[1,0.5]];portConstraint=eastwest;" parent="lZmtQ1H5wP_6aCsop2Vp-57" vertex="1">
          <mxGeometry y="156" width="160" height="26" as="geometry" />
        </mxCell>
        <mxCell id="lZmtQ1H5wP_6aCsop2Vp-64" value="" style="line;strokeWidth=1;fillColor=none;align=left;verticalAlign=middle;spacingTop=-1;spacingLeft=3;spacingRight=3;rotatable=0;labelPosition=right;points=[];portConstraint=eastwest;strokeColor=inherit;" parent="lZmtQ1H5wP_6aCsop2Vp-57" vertex="1">
          <mxGeometry y="182" width="160" height="8" as="geometry" />
        </mxCell>
        <mxCell id="lZmtQ1H5wP_6aCsop2Vp-65" value="GetEventID" style="text;strokeColor=none;fillColor=none;align=left;verticalAlign=top;spacingLeft=4;spacingRight=4;overflow=hidden;rotatable=0;points=[[0,0.5],[1,0.5]];portConstraint=eastwest;" parent="lZmtQ1H5wP_6aCsop2Vp-57" vertex="1">
          <mxGeometry y="190" width="160" height="26" as="geometry" />
        </mxCell>
        <mxCell id="lZmtQ1H5wP_6aCsop2Vp-66" value="SetPrice" style="text;strokeColor=none;fillColor=none;align=left;verticalAlign=top;spacingLeft=4;spacingRight=4;overflow=hidden;rotatable=0;points=[[0,0.5],[1,0.5]];portConstraint=eastwest;" parent="lZmtQ1H5wP_6aCsop2Vp-57" vertex="1">
          <mxGeometry y="216" width="160" height="26" as="geometry" />
        </mxCell>
        <mxCell id="lZmtQ1H5wP_6aCsop2Vp-67" value="getTicketID" style="text;strokeColor=none;fillColor=none;align=left;verticalAlign=top;spacingLeft=4;spacingRight=4;overflow=hidden;rotatable=0;points=[[0,0.5],[1,0.5]];portConstraint=eastwest;" parent="lZmtQ1H5wP_6aCsop2Vp-57" vertex="1">
          <mxGeometry y="242" width="160" height="26" as="geometry" />
        </mxCell>
        <mxCell id="lZmtQ1H5wP_6aCsop2Vp-68" value="getSeatNumber" style="text;strokeColor=none;fillColor=none;align=left;verticalAlign=top;spacingLeft=4;spacingRight=4;overflow=hidden;rotatable=0;points=[[0,0.5],[1,0.5]];portConstraint=eastwest;" parent="lZmtQ1H5wP_6aCsop2Vp-57" vertex="1">
          <mxGeometry y="268" width="160" height="26" as="geometry" />
        </mxCell>
        <mxCell id="lZmtQ1H5wP_6aCsop2Vp-69" value="getTicketID" style="text;strokeColor=none;fillColor=none;align=left;verticalAlign=top;spacingLeft=4;spacingRight=4;overflow=hidden;rotatable=0;points=[[0,0.5],[1,0.5]];portConstraint=eastwest;" parent="lZmtQ1H5wP_6aCsop2Vp-57" vertex="1">
          <mxGeometry y="294" width="160" height="26" as="geometry" />
        </mxCell>
        <mxCell id="lZmtQ1H5wP_6aCsop2Vp-70" value="getTicketID" style="text;strokeColor=none;fillColor=none;align=left;verticalAlign=top;spacingLeft=4;spacingRight=4;overflow=hidden;rotatable=0;points=[[0,0.5],[1,0.5]];portConstraint=eastwest;" parent="lZmtQ1H5wP_6aCsop2Vp-57" vertex="1">
          <mxGeometry y="320" width="160" height="26" as="geometry" />
        </mxCell>
        <mxCell id="lZmtQ1H5wP_6aCsop2Vp-71" value="Client" style="swimlane;fontStyle=2;align=center;verticalAlign=top;childLayout=stackLayout;horizontal=1;startSize=26;horizontalStack=0;resizeParent=1;resizeLast=0;collapsible=1;marginBottom=0;rounded=0;shadow=0;strokeWidth=1;" parent="WIyWlLk6GJQsqaUBKTNV-1" vertex="1">
          <mxGeometry x="-730" y="20" width="160" height="705" as="geometry">
            <mxRectangle x="230" y="140" width="160" height="26" as="alternateBounds" />
          </mxGeometry>
        </mxCell>
        <mxCell id="lZmtQ1H5wP_6aCsop2Vp-72" value="id" style="text;align=left;verticalAlign=top;spacingLeft=4;spacingRight=4;overflow=hidden;rotatable=0;points=[[0,0.5],[1,0.5]];portConstraint=eastwest;" parent="lZmtQ1H5wP_6aCsop2Vp-71" vertex="1">
          <mxGeometry y="26" width="160" height="26" as="geometry" />
        </mxCell>
        <mxCell id="lZmtQ1H5wP_6aCsop2Vp-73" value="nom" style="text;align=left;verticalAlign=top;spacingLeft=4;spacingRight=4;overflow=hidden;rotatable=0;points=[[0,0.5],[1,0.5]];portConstraint=eastwest;rounded=0;shadow=0;html=0;" parent="lZmtQ1H5wP_6aCsop2Vp-71" vertex="1">
          <mxGeometry y="52" width="160" height="26" as="geometry" />
        </mxCell>
        <mxCell id="lZmtQ1H5wP_6aCsop2Vp-74" value="prenom" style="text;align=left;verticalAlign=top;spacingLeft=4;spacingRight=4;overflow=hidden;rotatable=0;points=[[0,0.5],[1,0.5]];portConstraint=eastwest;rounded=0;shadow=0;html=0;" parent="lZmtQ1H5wP_6aCsop2Vp-71" vertex="1">
          <mxGeometry y="78" width="160" height="26" as="geometry" />
        </mxCell>
        <mxCell id="lZmtQ1H5wP_6aCsop2Vp-75" value="date de naissance" style="text;align=left;verticalAlign=top;spacingLeft=4;spacingRight=4;overflow=hidden;rotatable=0;points=[[0,0.5],[1,0.5]];portConstraint=eastwest;" parent="lZmtQ1H5wP_6aCsop2Vp-71" vertex="1">
          <mxGeometry y="104" width="160" height="26" as="geometry" />
        </mxCell>
        <mxCell id="lZmtQ1H5wP_6aCsop2Vp-76" value="email" style="text;align=left;verticalAlign=top;spacingLeft=4;spacingRight=4;overflow=hidden;rotatable=0;points=[[0,0.5],[1,0.5]];portConstraint=eastwest;" parent="lZmtQ1H5wP_6aCsop2Vp-71" vertex="1">
          <mxGeometry y="130" width="160" height="26" as="geometry" />
        </mxCell>
        <mxCell id="lZmtQ1H5wP_6aCsop2Vp-77" value="" style="endArrow=none;html=1;rounded=0;exitX=0.001;exitY=0.014;exitDx=0;exitDy=0;exitPerimeter=0;entryX=0.991;entryY=-0.046;entryDx=0;entryDy=0;entryPerimeter=0;" parent="lZmtQ1H5wP_6aCsop2Vp-71" source="lZmtQ1H5wP_6aCsop2Vp-91" target="lZmtQ1H5wP_6aCsop2Vp-91" edge="1">
          <mxGeometry width="50" height="50" relative="1" as="geometry">
            <mxPoint y="390" as="sourcePoint" />
            <mxPoint x="160" y="450" as="targetPoint" />
            <Array as="points" />
          </mxGeometry>
        </mxCell>
        <mxCell id="lZmtQ1H5wP_6aCsop2Vp-78" value="password" style="text;align=left;verticalAlign=top;spacingLeft=4;spacingRight=4;overflow=hidden;rotatable=0;points=[[0,0.5],[1,0.5]];portConstraint=eastwest;" parent="lZmtQ1H5wP_6aCsop2Vp-71" vertex="1">
          <mxGeometry y="156" width="160" height="26" as="geometry" />
        </mxCell>
        <mxCell id="lZmtQ1H5wP_6aCsop2Vp-79" value="nom d&#39;utilisateur" style="text;align=left;verticalAlign=top;spacingLeft=4;spacingRight=4;overflow=hidden;rotatable=0;points=[[0,0.5],[1,0.5]];portConstraint=eastwest;" parent="lZmtQ1H5wP_6aCsop2Vp-71" vertex="1">
          <mxGeometry y="182" width="160" height="26" as="geometry" />
        </mxCell>
        <mxCell id="lZmtQ1H5wP_6aCsop2Vp-80" value="photo" style="text;align=left;verticalAlign=top;spacingLeft=4;spacingRight=4;overflow=hidden;rotatable=0;points=[[0,0.5],[1,0.5]];portConstraint=eastwest;" parent="lZmtQ1H5wP_6aCsop2Vp-71" vertex="1">
          <mxGeometry y="208" width="160" height="26" as="geometry" />
        </mxCell>
        <mxCell id="lZmtQ1H5wP_6aCsop2Vp-81" value="sexe" style="text;align=left;verticalAlign=top;spacingLeft=4;spacingRight=4;overflow=hidden;rotatable=0;points=[[0,0.5],[1,0.5]];portConstraint=eastwest;" parent="lZmtQ1H5wP_6aCsop2Vp-71" vertex="1">
          <mxGeometry y="234" width="160" height="26" as="geometry" />
        </mxCell>
        <mxCell id="lZmtQ1H5wP_6aCsop2Vp-82" value="Categories: Category" style="text;align=left;verticalAlign=top;spacingLeft=4;spacingRight=4;overflow=hidden;rotatable=0;points=[[0,0.5],[1,0.5]];portConstraint=eastwest;" parent="lZmtQ1H5wP_6aCsop2Vp-71" vertex="1">
          <mxGeometry y="260" width="160" height="26" as="geometry" />
        </mxCell>
        <mxCell id="lZmtQ1H5wP_6aCsop2Vp-83" value="comments: List&lt;Comments&gt;" style="text;align=left;verticalAlign=top;spacingLeft=4;spacingRight=4;overflow=hidden;rotatable=0;points=[[0,0.5],[1,0.5]];portConstraint=eastwest;" parent="lZmtQ1H5wP_6aCsop2Vp-71" vertex="1">
          <mxGeometry y="286" width="160" height="26" as="geometry" />
        </mxCell>
        <mxCell id="lZmtQ1H5wP_6aCsop2Vp-84" value="Qr code" style="text;align=left;verticalAlign=top;spacingLeft=4;spacingRight=4;overflow=hidden;rotatable=0;points=[[0,0.5],[1,0.5]];portConstraint=eastwest;" parent="lZmtQ1H5wP_6aCsop2Vp-71" vertex="1">
          <mxGeometry y="312" width="160" height="26" as="geometry" />
        </mxCell>
        <mxCell id="lZmtQ1H5wP_6aCsop2Vp-85" value="friend_list" style="text;align=left;verticalAlign=top;spacingLeft=4;spacingRight=4;overflow=hidden;rotatable=0;points=[[0,0.5],[1,0.5]];portConstraint=eastwest;" parent="lZmtQ1H5wP_6aCsop2Vp-71" vertex="1">
          <mxGeometry y="338" width="160" height="26" as="geometry" />
        </mxCell>
        <mxCell id="lZmtQ1H5wP_6aCsop2Vp-86" value="fans" style="text;align=left;verticalAlign=top;spacingLeft=4;spacingRight=4;overflow=hidden;rotatable=0;points=[[0,0.5],[1,0.5]];portConstraint=eastwest;" parent="lZmtQ1H5wP_6aCsop2Vp-71" vertex="1">
          <mxGeometry y="364" width="160" height="26" as="geometry" />
        </mxCell>
        <mxCell id="lZmtQ1H5wP_6aCsop2Vp-87" value="fans" style="text;align=left;verticalAlign=top;spacingLeft=4;spacingRight=4;overflow=hidden;rotatable=0;points=[[0,0.5],[1,0.5]];portConstraint=eastwest;" parent="lZmtQ1H5wP_6aCsop2Vp-71" vertex="1">
          <mxGeometry y="390" width="160" height="26" as="geometry" />
        </mxCell>
        <mxCell id="lZmtQ1H5wP_6aCsop2Vp-88" value="Favoris_id" style="text;align=left;verticalAlign=top;spacingLeft=4;spacingRight=4;overflow=hidden;rotatable=0;points=[[0,0.5],[1,0.5]];portConstraint=eastwest;" parent="lZmtQ1H5wP_6aCsop2Vp-71" vertex="1">
          <mxGeometry y="416" width="160" height="26" as="geometry" />
        </mxCell>
        <mxCell id="lZmtQ1H5wP_6aCsop2Vp-89" value="followers" style="text;align=left;verticalAlign=top;spacingLeft=4;spacingRight=4;overflow=hidden;rotatable=0;points=[[0,0.5],[1,0.5]];portConstraint=eastwest;" parent="lZmtQ1H5wP_6aCsop2Vp-71" vertex="1">
          <mxGeometry y="442" width="160" height="26" as="geometry" />
        </mxCell>
        <mxCell id="lZmtQ1H5wP_6aCsop2Vp-90" value="event_going_id" style="text;align=left;verticalAlign=top;spacingLeft=4;spacingRight=4;overflow=hidden;rotatable=0;points=[[0,0.5],[1,0.5]];portConstraint=eastwest;" parent="lZmtQ1H5wP_6aCsop2Vp-71" vertex="1">
          <mxGeometry y="468" width="160" height="26" as="geometry" />
        </mxCell>
        <mxCell id="lZmtQ1H5wP_6aCsop2Vp-91" value="Check_event" style="text;align=left;verticalAlign=top;spacingLeft=4;spacingRight=4;overflow=hidden;rotatable=0;points=[[0,0.5],[1,0.5]];portConstraint=eastwest;" parent="lZmtQ1H5wP_6aCsop2Vp-71" vertex="1">
          <mxGeometry y="494" width="160" height="26" as="geometry" />
        </mxCell>
        <mxCell id="lZmtQ1H5wP_6aCsop2Vp-92" value="filter_event" style="text;align=left;verticalAlign=top;spacingLeft=4;spacingRight=4;overflow=hidden;rotatable=0;points=[[0,0.5],[1,0.5]];portConstraint=eastwest;" parent="lZmtQ1H5wP_6aCsop2Vp-71" vertex="1">
          <mxGeometry y="520" width="160" height="26" as="geometry" />
        </mxCell>
        <mxCell id="lZmtQ1H5wP_6aCsop2Vp-93" value="change_qr_code" style="text;align=left;verticalAlign=top;spacingLeft=4;spacingRight=4;overflow=hidden;rotatable=0;points=[[0,0.5],[1,0.5]];portConstraint=eastwest;" parent="lZmtQ1H5wP_6aCsop2Vp-71" vertex="1">
          <mxGeometry y="546" width="160" height="26" as="geometry" />
        </mxCell>
        <mxCell id="lZmtQ1H5wP_6aCsop2Vp-94" value="chat" style="text;align=left;verticalAlign=top;spacingLeft=4;spacingRight=4;overflow=hidden;rotatable=0;points=[[0,0.5],[1,0.5]];portConstraint=eastwest;" parent="lZmtQ1H5wP_6aCsop2Vp-71" vertex="1">
          <mxGeometry y="572" width="160" height="26" as="geometry" />
        </mxCell>
        <mxCell id="lZmtQ1H5wP_6aCsop2Vp-95" value="send_friend_request" style="text;align=left;verticalAlign=top;spacingLeft=4;spacingRight=4;overflow=hidden;rotatable=0;points=[[0,0.5],[1,0.5]];portConstraint=eastwest;" parent="lZmtQ1H5wP_6aCsop2Vp-71" vertex="1">
          <mxGeometry y="598" width="160" height="26" as="geometry" />
        </mxCell>
        <mxCell id="lZmtQ1H5wP_6aCsop2Vp-96" value="check_attendee_list" style="text;align=left;verticalAlign=top;spacingLeft=4;spacingRight=4;overflow=hidden;rotatable=0;points=[[0,0.5],[1,0.5]];portConstraint=eastwest;" parent="lZmtQ1H5wP_6aCsop2Vp-71" vertex="1">
          <mxGeometry y="624" width="160" height="26" as="geometry" />
        </mxCell>
        <mxCell id="lZmtQ1H5wP_6aCsop2Vp-97" value="updateprofil" style="text;align=left;verticalAlign=top;spacingLeft=4;spacingRight=4;overflow=hidden;rotatable=0;points=[[0,0.5],[1,0.5]];portConstraint=eastwest;" parent="lZmtQ1H5wP_6aCsop2Vp-71" vertex="1">
          <mxGeometry y="650" width="160" height="26" as="geometry" />
        </mxCell>
        <mxCell id="lZmtQ1H5wP_6aCsop2Vp-98" value="deleteacount" style="text;align=left;verticalAlign=top;spacingLeft=4;spacingRight=4;overflow=hidden;rotatable=0;points=[[0,0.5],[1,0.5]];portConstraint=eastwest;" parent="lZmtQ1H5wP_6aCsop2Vp-71" vertex="1">
          <mxGeometry y="676" width="160" height="26" as="geometry" />
        </mxCell>
        <mxCell id="lZmtQ1H5wP_6aCsop2Vp-99" value="Reservation" style="swimlane;fontStyle=1;align=center;verticalAlign=top;childLayout=stackLayout;horizontal=1;startSize=26;horizontalStack=0;resizeParent=1;resizeParentMax=0;resizeLast=0;collapsible=1;marginBottom=0;html=0;" parent="WIyWlLk6GJQsqaUBKTNV-1" vertex="1">
          <mxGeometry x="-490" y="30" width="160" height="190" as="geometry" />
        </mxCell>
        <mxCell id="lZmtQ1H5wP_6aCsop2Vp-100" value="+chat&#xa;" style="text;strokeColor=none;fillColor=none;align=left;verticalAlign=top;spacingLeft=4;spacingRight=4;overflow=hidden;rotatable=0;points=[[0,0.5],[1,0.5]];portConstraint=eastwest;" parent="lZmtQ1H5wP_6aCsop2Vp-99" vertex="1">
          <mxGeometry y="26" width="160" height="26" as="geometry" />
        </mxCell>
        <mxCell id="lZmtQ1H5wP_6aCsop2Vp-101" value="+forumalaire" style="text;strokeColor=none;fillColor=none;align=left;verticalAlign=top;spacingLeft=4;spacingRight=4;overflow=hidden;rotatable=0;points=[[0,0.5],[1,0.5]];portConstraint=eastwest;" parent="lZmtQ1H5wP_6aCsop2Vp-99" vertex="1">
          <mxGeometry y="52" width="160" height="26" as="geometry" />
        </mxCell>
        <mxCell id="lZmtQ1H5wP_6aCsop2Vp-102" value="+Id_qrcode" style="text;strokeColor=none;fillColor=none;align=left;verticalAlign=top;spacingLeft=4;spacingRight=4;overflow=hidden;rotatable=0;points=[[0,0.5],[1,0.5]];portConstraint=eastwest;" parent="lZmtQ1H5wP_6aCsop2Vp-99" vertex="1">
          <mxGeometry y="78" width="160" height="26" as="geometry" />
        </mxCell>
        <mxCell id="lZmtQ1H5wP_6aCsop2Vp-103" value="+date" style="text;strokeColor=none;fillColor=none;align=left;verticalAlign=top;spacingLeft=4;spacingRight=4;overflow=hidden;rotatable=0;points=[[0,0.5],[1,0.5]];portConstraint=eastwest;" parent="lZmtQ1H5wP_6aCsop2Vp-99" vertex="1">
          <mxGeometry y="104" width="160" height="26" as="geometry" />
        </mxCell>
        <mxCell id="lZmtQ1H5wP_6aCsop2Vp-104" value="+seating" style="text;strokeColor=none;fillColor=none;align=left;verticalAlign=top;spacingLeft=4;spacingRight=4;overflow=hidden;rotatable=0;points=[[0,0.5],[1,0.5]];portConstraint=eastwest;" parent="lZmtQ1H5wP_6aCsop2Vp-99" vertex="1">
          <mxGeometry y="130" width="160" height="26" as="geometry" />
        </mxCell>
        <mxCell id="lZmtQ1H5wP_6aCsop2Vp-105" value="" style="line;strokeWidth=1;fillColor=none;align=left;verticalAlign=middle;spacingTop=-1;spacingLeft=3;spacingRight=3;rotatable=0;labelPosition=right;points=[];portConstraint=eastwest;strokeColor=inherit;html=0;" parent="lZmtQ1H5wP_6aCsop2Vp-99" vertex="1">
          <mxGeometry y="156" width="160" height="8" as="geometry" />
        </mxCell>
        <mxCell id="lZmtQ1H5wP_6aCsop2Vp-106" value="+ method(type): type" style="text;strokeColor=none;fillColor=none;align=left;verticalAlign=top;spacingLeft=4;spacingRight=4;overflow=hidden;rotatable=0;points=[[0,0.5],[1,0.5]];portConstraint=eastwest;" parent="lZmtQ1H5wP_6aCsop2Vp-99" vertex="1">
          <mxGeometry y="164" width="160" height="26" as="geometry" />
        </mxCell>
        <mxCell id="lZmtQ1H5wP_6aCsop2Vp-107" value="Comment" style="swimlane;fontStyle=1;align=center;verticalAlign=top;childLayout=stackLayout;horizontal=1;startSize=26;horizontalStack=0;resizeParent=1;resizeParentMax=0;resizeLast=0;collapsible=1;marginBottom=0;html=0;" parent="WIyWlLk6GJQsqaUBKTNV-1" vertex="1">
          <mxGeometry x="-490" y="270" width="160" height="164" as="geometry" />
        </mxCell>
        <mxCell id="lZmtQ1H5wP_6aCsop2Vp-108" value="int likes" style="text;strokeColor=none;fillColor=none;align=left;verticalAlign=top;spacingLeft=4;spacingRight=4;overflow=hidden;rotatable=0;points=[[0,0.5],[1,0.5]];portConstraint=eastwest;" parent="lZmtQ1H5wP_6aCsop2Vp-107" vertex="1">
          <mxGeometry y="26" width="160" height="26" as="geometry" />
        </mxCell>
        <mxCell id="lZmtQ1H5wP_6aCsop2Vp-109" value="int dislikes" style="text;strokeColor=none;fillColor=none;align=left;verticalAlign=top;spacingLeft=4;spacingRight=4;overflow=hidden;rotatable=0;points=[[0,0.5],[1,0.5]];portConstraint=eastwest;" parent="lZmtQ1H5wP_6aCsop2Vp-107" vertex="1">
          <mxGeometry y="52" width="160" height="26" as="geometry" />
        </mxCell>
        <mxCell id="lZmtQ1H5wP_6aCsop2Vp-110" value="commentCreator" style="text;strokeColor=none;fillColor=none;align=left;verticalAlign=top;spacingLeft=4;spacingRight=4;overflow=hidden;rotatable=0;points=[[0,0.5],[1,0.5]];portConstraint=eastwest;" parent="lZmtQ1H5wP_6aCsop2Vp-107" vertex="1">
          <mxGeometry y="78" width="160" height="26" as="geometry" />
        </mxCell>
        <mxCell id="lZmtQ1H5wP_6aCsop2Vp-111" value="commentedOn" style="text;strokeColor=none;fillColor=none;align=left;verticalAlign=top;spacingLeft=4;spacingRight=4;overflow=hidden;rotatable=0;points=[[0,0.5],[1,0.5]];portConstraint=eastwest;" parent="lZmtQ1H5wP_6aCsop2Vp-107" vertex="1">
          <mxGeometry y="104" width="160" height="26" as="geometry" />
        </mxCell>
        <mxCell id="lZmtQ1H5wP_6aCsop2Vp-112" value="" style="line;strokeWidth=1;fillColor=none;align=left;verticalAlign=middle;spacingTop=-1;spacingLeft=3;spacingRight=3;rotatable=0;labelPosition=right;points=[];portConstraint=eastwest;strokeColor=inherit;html=0;" parent="lZmtQ1H5wP_6aCsop2Vp-107" vertex="1">
          <mxGeometry y="130" width="160" height="8" as="geometry" />
        </mxCell>
        <mxCell id="lZmtQ1H5wP_6aCsop2Vp-113" value="+ method(type): type" style="text;strokeColor=none;fillColor=none;align=left;verticalAlign=top;spacingLeft=4;spacingRight=4;overflow=hidden;rotatable=0;points=[[0,0.5],[1,0.5]];portConstraint=eastwest;" parent="lZmtQ1H5wP_6aCsop2Vp-107" vertex="1">
          <mxGeometry y="138" width="160" height="26" as="geometry" />
        </mxCell>
        <mxCell id="lZmtQ1H5wP_6aCsop2Vp-114" value="Portier" style="swimlane;fontStyle=1;align=center;verticalAlign=top;childLayout=stackLayout;horizontal=1;startSize=26;horizontalStack=0;resizeParent=1;resizeParentMax=0;resizeLast=0;collapsible=1;marginBottom=0;html=0;" parent="WIyWlLk6GJQsqaUBKTNV-1" vertex="1">
          <mxGeometry x="-230" y="50" width="160" height="190" as="geometry" />
        </mxCell>
        <mxCell id="lZmtQ1H5wP_6aCsop2Vp-115" value="_id" style="text;strokeColor=none;fillColor=none;align=left;verticalAlign=top;spacingLeft=4;spacingRight=4;overflow=hidden;rotatable=0;points=[[0,0.5],[1,0.5]];portConstraint=eastwest;" parent="lZmtQ1H5wP_6aCsop2Vp-114" vertex="1">
          <mxGeometry y="26" width="160" height="26" as="geometry" />
        </mxCell>
        <mxCell id="lZmtQ1H5wP_6aCsop2Vp-116" value="username" style="text;strokeColor=none;fillColor=none;align=left;verticalAlign=top;spacingLeft=4;spacingRight=4;overflow=hidden;rotatable=0;points=[[0,0.5],[1,0.5]];portConstraint=eastwest;" parent="lZmtQ1H5wP_6aCsop2Vp-114" vertex="1">
          <mxGeometry y="52" width="160" height="26" as="geometry" />
        </mxCell>
        <mxCell id="lZmtQ1H5wP_6aCsop2Vp-117" value="password" style="text;strokeColor=none;fillColor=none;align=left;verticalAlign=top;spacingLeft=4;spacingRight=4;overflow=hidden;rotatable=0;points=[[0,0.5],[1,0.5]];portConstraint=eastwest;" parent="lZmtQ1H5wP_6aCsop2Vp-114" vertex="1">
          <mxGeometry y="78" width="160" height="26" as="geometry" />
        </mxCell>
        <mxCell id="lZmtQ1H5wP_6aCsop2Vp-118" value="assignedEvent" style="text;strokeColor=none;fillColor=none;align=left;verticalAlign=top;spacingLeft=4;spacingRight=4;overflow=hidden;rotatable=0;points=[[0,0.5],[1,0.5]];portConstraint=eastwest;" parent="lZmtQ1H5wP_6aCsop2Vp-114" vertex="1">
          <mxGeometry y="104" width="160" height="26" as="geometry" />
        </mxCell>
        <mxCell id="lZmtQ1H5wP_6aCsop2Vp-119" value="email" style="text;strokeColor=none;fillColor=none;align=left;verticalAlign=top;spacingLeft=4;spacingRight=4;overflow=hidden;rotatable=0;points=[[0,0.5],[1,0.5]];portConstraint=eastwest;" parent="lZmtQ1H5wP_6aCsop2Vp-114" vertex="1">
          <mxGeometry y="130" width="160" height="26" as="geometry" />
        </mxCell>
        <mxCell id="lZmtQ1H5wP_6aCsop2Vp-120" value="" style="line;strokeWidth=1;fillColor=none;align=left;verticalAlign=middle;spacingTop=-1;spacingLeft=3;spacingRight=3;rotatable=0;labelPosition=right;points=[];portConstraint=eastwest;strokeColor=inherit;html=0;" parent="lZmtQ1H5wP_6aCsop2Vp-114" vertex="1">
          <mxGeometry y="156" width="160" height="8" as="geometry" />
        </mxCell>
        <mxCell id="lZmtQ1H5wP_6aCsop2Vp-121" value="scanQrCode()" style="text;strokeColor=none;fillColor=none;align=left;verticalAlign=top;spacingLeft=4;spacingRight=4;overflow=hidden;rotatable=0;points=[[0,0.5],[1,0.5]];portConstraint=eastwest;" parent="lZmtQ1H5wP_6aCsop2Vp-114" vertex="1">
          <mxGeometry y="164" width="160" height="26" as="geometry" />
        </mxCell>
        <mxCell id="lZmtQ1H5wP_6aCsop2Vp-333" style="edgeStyle=none;rounded=0;orthogonalLoop=1;jettySize=auto;html=1;fontSize=14;endArrow=none;endFill=0;exitX=0.628;exitY=1;exitDx=0;exitDy=0;exitPerimeter=0;" parent="WIyWlLk6GJQsqaUBKTNV-1" source="lZmtQ1H5wP_6aCsop2Vp-125" target="lZmtQ1H5wP_6aCsop2Vp-310" edge="1">
          <mxGeometry relative="1" as="geometry">
            <Array as="points">
              <mxPoint x="1040" y="1440" />
              <mxPoint x="150" y="1440" />
              <mxPoint x="110" y="1440" />
            </Array>
          </mxGeometry>
        </mxCell>
        <mxCell id="lZmtQ1H5wP_6aCsop2Vp-122" value="Admin" style="swimlane;fontStyle=1;align=center;verticalAlign=top;childLayout=stackLayout;horizontal=1;startSize=26;horizontalStack=0;resizeParent=1;resizeParentMax=0;resizeLast=0;collapsible=1;marginBottom=0;html=0;" parent="WIyWlLk6GJQsqaUBKTNV-1" vertex="1">
          <mxGeometry x="940" y="1000" width="160" height="34" as="geometry" />
        </mxCell>
        <mxCell id="lZmtQ1H5wP_6aCsop2Vp-125" value="" style="line;strokeWidth=1;fillColor=none;align=left;verticalAlign=middle;spacingTop=-1;spacingLeft=3;spacingRight=3;rotatable=0;labelPosition=right;points=[];portConstraint=eastwest;strokeColor=inherit;html=0;" parent="lZmtQ1H5wP_6aCsop2Vp-122" vertex="1">
          <mxGeometry y="26" width="160" height="8" as="geometry" />
        </mxCell>
        <mxCell id="lZmtQ1H5wP_6aCsop2Vp-127" value="Organisateur" style="swimlane;fontStyle=0;align=center;verticalAlign=top;childLayout=stackLayout;horizontal=1;startSize=26;horizontalStack=0;resizeParent=1;resizeLast=0;collapsible=1;marginBottom=0;rounded=0;shadow=0;strokeWidth=1;" parent="WIyWlLk6GJQsqaUBKTNV-1" vertex="1">
          <mxGeometry x="-240" y="260" width="160" height="520" as="geometry">
            <mxRectangle x="130" y="380" width="160" height="26" as="alternateBounds" />
          </mxGeometry>
        </mxCell>
        <mxCell id="lZmtQ1H5wP_6aCsop2Vp-128" value="id" style="text;align=left;verticalAlign=top;spacingLeft=4;spacingRight=4;overflow=hidden;rotatable=0;points=[[0,0.5],[1,0.5]];portConstraint=eastwest;" parent="lZmtQ1H5wP_6aCsop2Vp-127" vertex="1">
          <mxGeometry y="26" width="160" height="26" as="geometry" />
        </mxCell>
        <mxCell id="lZmtQ1H5wP_6aCsop2Vp-129" value="Cin" style="text;align=left;verticalAlign=top;spacingLeft=4;spacingRight=4;overflow=hidden;rotatable=0;points=[[0,0.5],[1,0.5]];portConstraint=eastwest;rounded=0;shadow=0;html=0;" parent="lZmtQ1H5wP_6aCsop2Vp-127" vertex="1">
          <mxGeometry y="52" width="160" height="26" as="geometry" />
        </mxCell>
        <mxCell id="lZmtQ1H5wP_6aCsop2Vp-130" value="Numéro téléphone" style="text;align=left;verticalAlign=top;spacingLeft=4;spacingRight=4;overflow=hidden;rotatable=0;points=[[0,0.5],[1,0.5]];portConstraint=eastwest;fontStyle=0" parent="lZmtQ1H5wP_6aCsop2Vp-127" vertex="1">
          <mxGeometry y="78" width="160" height="26" as="geometry" />
        </mxCell>
        <mxCell id="lZmtQ1H5wP_6aCsop2Vp-131" value="Staff" style="text;align=left;verticalAlign=top;spacingLeft=4;spacingRight=4;overflow=hidden;rotatable=0;points=[[0,0.5],[1,0.5]];portConstraint=eastwest;fontStyle=0" parent="lZmtQ1H5wP_6aCsop2Vp-127" vertex="1">
          <mxGeometry y="104" width="160" height="26" as="geometry" />
        </mxCell>
        <mxCell id="lZmtQ1H5wP_6aCsop2Vp-132" value="Rib" style="text;align=left;verticalAlign=top;spacingLeft=4;spacingRight=4;overflow=hidden;rotatable=0;points=[[0,0.5],[1,0.5]];portConstraint=eastwest;fontStyle=0" parent="lZmtQ1H5wP_6aCsop2Vp-127" vertex="1">
          <mxGeometry y="130" width="160" height="26" as="geometry" />
        </mxCell>
        <mxCell id="lZmtQ1H5wP_6aCsop2Vp-133" value="posts: List&lt;Post&gt;" style="text;align=left;verticalAlign=top;spacingLeft=4;spacingRight=4;overflow=hidden;rotatable=0;points=[[0,0.5],[1,0.5]];portConstraint=eastwest;fontStyle=0" parent="lZmtQ1H5wP_6aCsop2Vp-127" vertex="1">
          <mxGeometry y="156" width="160" height="26" as="geometry" />
        </mxCell>
        <mxCell id="lZmtQ1H5wP_6aCsop2Vp-134" value="eventList" style="text;align=left;verticalAlign=top;spacingLeft=4;spacingRight=4;overflow=hidden;rotatable=0;points=[[0,0.5],[1,0.5]];portConstraint=eastwest;fontStyle=0" parent="lZmtQ1H5wP_6aCsop2Vp-127" vertex="1">
          <mxGeometry y="182" width="160" height="26" as="geometry" />
        </mxCell>
        <mxCell id="lZmtQ1H5wP_6aCsop2Vp-135" value="ticket_sales" style="text;align=left;verticalAlign=top;spacingLeft=4;spacingRight=4;overflow=hidden;rotatable=0;points=[[0,0.5],[1,0.5]];portConstraint=eastwest;fontStyle=0" parent="lZmtQ1H5wP_6aCsop2Vp-127" vertex="1">
          <mxGeometry y="208" width="160" height="26" as="geometry" />
        </mxCell>
        <mxCell id="lZmtQ1H5wP_6aCsop2Vp-136" value="  " style="text;align=left;verticalAlign=top;spacingLeft=4;spacingRight=4;overflow=hidden;rotatable=0;points=[[0,0.5],[1,0.5]];portConstraint=eastwest;fontStyle=0" parent="lZmtQ1H5wP_6aCsop2Vp-127" vertex="1">
          <mxGeometry y="234" width="160" height="26" as="geometry" />
        </mxCell>
        <mxCell id="lZmtQ1H5wP_6aCsop2Vp-137" value="createEvent" style="text;align=left;verticalAlign=top;spacingLeft=4;spacingRight=4;overflow=hidden;rotatable=0;points=[[0,0.5],[1,0.5]];portConstraint=eastwest;fontStyle=0" parent="lZmtQ1H5wP_6aCsop2Vp-127" vertex="1">
          <mxGeometry y="260" width="160" height="26" as="geometry" />
        </mxCell>
        <mxCell id="lZmtQ1H5wP_6aCsop2Vp-138" value="chat" style="text;align=left;verticalAlign=top;spacingLeft=4;spacingRight=4;overflow=hidden;rotatable=0;points=[[0,0.5],[1,0.5]];portConstraint=eastwest;fontStyle=0" parent="lZmtQ1H5wP_6aCsop2Vp-127" vertex="1">
          <mxGeometry y="286" width="160" height="26" as="geometry" />
        </mxCell>
        <mxCell id="lZmtQ1H5wP_6aCsop2Vp-139" value="sendNotification" style="text;align=left;verticalAlign=top;spacingLeft=4;spacingRight=4;overflow=hidden;rotatable=0;points=[[0,0.5],[1,0.5]];portConstraint=eastwest;fontStyle=0" parent="lZmtQ1H5wP_6aCsop2Vp-127" vertex="1">
          <mxGeometry y="312" width="160" height="26" as="geometry" />
        </mxCell>
        <mxCell id="lZmtQ1H5wP_6aCsop2Vp-140" value="changeEventDetails" style="text;align=left;verticalAlign=top;spacingLeft=4;spacingRight=4;overflow=hidden;rotatable=0;points=[[0,0.5],[1,0.5]];portConstraint=eastwest;fontStyle=0" parent="lZmtQ1H5wP_6aCsop2Vp-127" vertex="1">
          <mxGeometry y="338" width="160" height="26" as="geometry" />
        </mxCell>
        <mxCell id="lZmtQ1H5wP_6aCsop2Vp-141" value="checkTicketSales" style="text;align=left;verticalAlign=top;spacingLeft=4;spacingRight=4;overflow=hidden;rotatable=0;points=[[0,0.5],[1,0.5]];portConstraint=eastwest;fontStyle=0" parent="lZmtQ1H5wP_6aCsop2Vp-127" vertex="1">
          <mxGeometry y="364" width="160" height="26" as="geometry" />
        </mxCell>
        <mxCell id="lZmtQ1H5wP_6aCsop2Vp-142" value="assignDoorman" style="text;align=left;verticalAlign=top;spacingLeft=4;spacingRight=4;overflow=hidden;rotatable=0;points=[[0,0.5],[1,0.5]];portConstraint=eastwest;fontStyle=0" parent="lZmtQ1H5wP_6aCsop2Vp-127" vertex="1">
          <mxGeometry y="390" width="160" height="26" as="geometry" />
        </mxCell>
        <mxCell id="lZmtQ1H5wP_6aCsop2Vp-143" value="" style="endArrow=none;html=1;rounded=0;" parent="lZmtQ1H5wP_6aCsop2Vp-127" edge="1">
          <mxGeometry width="50" height="50" relative="1" as="geometry">
            <mxPoint y="255" as="sourcePoint" />
            <mxPoint x="160" y="255" as="targetPoint" />
            <Array as="points" />
          </mxGeometry>
        </mxCell>
        <mxCell id="lZmtQ1H5wP_6aCsop2Vp-144" value="checkattendee" style="text;align=left;verticalAlign=top;spacingLeft=4;spacingRight=4;overflow=hidden;rotatable=0;points=[[0,0.5],[1,0.5]];portConstraint=eastwest;fontStyle=0" parent="lZmtQ1H5wP_6aCsop2Vp-127" vertex="1">
          <mxGeometry y="416" width="160" height="26" as="geometry" />
        </mxCell>
        <mxCell id="lZmtQ1H5wP_6aCsop2Vp-145" value="addDoorman" style="text;align=left;verticalAlign=top;spacingLeft=4;spacingRight=4;overflow=hidden;rotatable=0;points=[[0,0.5],[1,0.5]];portConstraint=eastwest;fontStyle=0" parent="lZmtQ1H5wP_6aCsop2Vp-127" vertex="1">
          <mxGeometry y="442" width="160" height="26" as="geometry" />
        </mxCell>
        <mxCell id="lZmtQ1H5wP_6aCsop2Vp-146" value="deleteDoorman" style="text;align=left;verticalAlign=top;spacingLeft=4;spacingRight=4;overflow=hidden;rotatable=0;points=[[0,0.5],[1,0.5]];portConstraint=eastwest;fontStyle=0" parent="lZmtQ1H5wP_6aCsop2Vp-127" vertex="1">
          <mxGeometry y="468" width="160" height="26" as="geometry" />
        </mxCell>
        <mxCell id="lZmtQ1H5wP_6aCsop2Vp-147" value="updateProfil&#xa;" style="text;align=left;verticalAlign=top;spacingLeft=4;spacingRight=4;overflow=hidden;rotatable=0;points=[[0,0.5],[1,0.5]];portConstraint=eastwest;fontStyle=0" parent="lZmtQ1H5wP_6aCsop2Vp-127" vertex="1">
          <mxGeometry y="494" width="160" height="26" as="geometry" />
        </mxCell>
        <mxCell id="lZmtQ1H5wP_6aCsop2Vp-318" style="edgeStyle=none;rounded=0;orthogonalLoop=1;jettySize=auto;html=1;exitX=0;exitY=0.25;exitDx=0;exitDy=0;fontSize=14;endArrow=none;endFill=0;" parent="WIyWlLk6GJQsqaUBKTNV-1" source="lZmtQ1H5wP_6aCsop2Vp-149" edge="1">
          <mxGeometry relative="1" as="geometry">
            <mxPoint x="240" y="1030" as="targetPoint" />
          </mxGeometry>
        </mxCell>
        <mxCell id="lZmtQ1H5wP_6aCsop2Vp-319" style="edgeStyle=none;rounded=0;orthogonalLoop=1;jettySize=auto;html=1;entryX=1;entryY=0.75;entryDx=0;entryDy=0;fontSize=14;endArrow=none;endFill=0;startArrow=none;" parent="WIyWlLk6GJQsqaUBKTNV-1" source="lZmtQ1H5wP_6aCsop2Vp-252" target="lZmtQ1H5wP_6aCsop2Vp-217" edge="1">
          <mxGeometry relative="1" as="geometry">
            <mxPoint x="760" y="1094" as="sourcePoint" />
          </mxGeometry>
        </mxCell>
        <mxCell id="lZmtQ1H5wP_6aCsop2Vp-322" style="edgeStyle=none;rounded=0;orthogonalLoop=1;jettySize=auto;html=1;exitX=0.003;exitY=0.603;exitDx=0;exitDy=0;entryX=1;entryY=0;entryDx=0;entryDy=0;fontSize=14;endArrow=none;endFill=0;startArrow=none;exitPerimeter=0;" parent="WIyWlLk6GJQsqaUBKTNV-1" source="lZmtQ1H5wP_6aCsop2Vp-288" target="lZmtQ1H5wP_6aCsop2Vp-217" edge="1">
          <mxGeometry relative="1" as="geometry">
            <Array as="points">
              <mxPoint x="320" y="940" />
            </Array>
          </mxGeometry>
        </mxCell>
        <mxCell id="lZmtQ1H5wP_6aCsop2Vp-328" style="edgeStyle=none;rounded=0;orthogonalLoop=1;jettySize=auto;html=1;entryX=0.372;entryY=0.018;entryDx=0;entryDy=0;fontSize=14;endArrow=none;endFill=0;entryPerimeter=0;" parent="WIyWlLk6GJQsqaUBKTNV-1" source="lZmtQ1H5wP_6aCsop2Vp-149" target="lZmtQ1H5wP_6aCsop2Vp-122" edge="1">
          <mxGeometry relative="1" as="geometry">
            <Array as="points">
              <mxPoint x="840" y="980" />
              <mxPoint x="920" y="980" />
              <mxPoint x="1000" y="980" />
            </Array>
          </mxGeometry>
        </mxCell>
        <mxCell id="lZmtQ1H5wP_6aCsop2Vp-330" style="edgeStyle=none;rounded=0;orthogonalLoop=1;jettySize=auto;html=1;entryX=0.5;entryY=1;entryDx=0;entryDy=0;fontSize=14;endArrow=block;endFill=0;exitX=0.5;exitY=0;exitDx=0;exitDy=0;" parent="WIyWlLk6GJQsqaUBKTNV-1" source="lZmtQ1H5wP_6aCsop2Vp-149" target="lZmtQ1H5wP_6aCsop2Vp-184" edge="1">
          <mxGeometry relative="1" as="geometry">
            <Array as="points">
              <mxPoint x="840" y="980" />
              <mxPoint x="920" y="980" />
            </Array>
          </mxGeometry>
        </mxCell>
        <mxCell id="lZmtQ1H5wP_6aCsop2Vp-332" style="edgeStyle=none;rounded=0;orthogonalLoop=1;jettySize=auto;html=1;exitX=0;exitY=0.75;exitDx=0;exitDy=0;entryX=0.996;entryY=0.354;entryDx=0;entryDy=0;entryPerimeter=0;fontSize=14;endArrow=none;endFill=0;" parent="WIyWlLk6GJQsqaUBKTNV-1" source="lZmtQ1H5wP_6aCsop2Vp-149" target="lZmtQ1H5wP_6aCsop2Vp-252" edge="1">
          <mxGeometry relative="1" as="geometry" />
        </mxCell>
        <mxCell id="lZmtQ1H5wP_6aCsop2Vp-149" value="Client" style="swimlane;fontStyle=2;align=center;verticalAlign=top;childLayout=stackLayout;horizontal=1;startSize=26;horizontalStack=0;resizeParent=1;resizeLast=0;collapsible=1;marginBottom=0;rounded=0;shadow=0;strokeWidth=1;" parent="WIyWlLk6GJQsqaUBKTNV-1" vertex="1">
          <mxGeometry x="760" y="1000" width="160" height="122" as="geometry">
            <mxRectangle x="230" y="140" width="160" height="26" as="alternateBounds" />
          </mxGeometry>
        </mxCell>
        <mxCell id="lZmtQ1H5wP_6aCsop2Vp-155" value="" style="endArrow=none;html=1;rounded=0;entryX=0.991;entryY=-0.046;entryDx=0;entryDy=0;entryPerimeter=0;" parent="lZmtQ1H5wP_6aCsop2Vp-149" edge="1">
          <mxGeometry width="50" height="50" relative="1" as="geometry">
            <mxPoint y="77" as="sourcePoint" />
            <mxPoint x="158.55999999999995" y="76.80400000000009" as="targetPoint" />
            <Array as="points" />
          </mxGeometry>
        </mxCell>
        <mxCell id="lZmtQ1H5wP_6aCsop2Vp-184" value="Utilisateur" style="swimlane;fontStyle=1;align=center;verticalAlign=top;childLayout=stackLayout;horizontal=1;startSize=26;horizontalStack=0;resizeParent=1;resizeParentMax=0;resizeLast=0;collapsible=1;marginBottom=0;html=0;" parent="WIyWlLk6GJQsqaUBKTNV-1" vertex="1">
          <mxGeometry x="840" y="900" width="160" height="34" as="geometry" />
        </mxCell>
        <mxCell id="lZmtQ1H5wP_6aCsop2Vp-185" value="" style="line;strokeWidth=1;fillColor=none;align=left;verticalAlign=middle;spacingTop=-1;spacingLeft=3;spacingRight=3;rotatable=0;labelPosition=right;points=[];portConstraint=eastwest;strokeColor=inherit;html=0;" parent="lZmtQ1H5wP_6aCsop2Vp-184" vertex="1">
          <mxGeometry y="26" width="160" height="8" as="geometry" />
        </mxCell>
        <mxCell id="lZmtQ1H5wP_6aCsop2Vp-186" value="Organisateur" style="swimlane;fontStyle=0;align=center;verticalAlign=top;childLayout=stackLayout;horizontal=1;startSize=26;horizontalStack=0;resizeParent=1;resizeLast=0;collapsible=1;marginBottom=0;rounded=0;shadow=0;strokeWidth=1;" parent="WIyWlLk6GJQsqaUBKTNV-1" vertex="1">
          <mxGeometry x="760" y="1250" width="160" height="120" as="geometry">
            <mxRectangle x="130" y="380" width="160" height="26" as="alternateBounds" />
          </mxGeometry>
        </mxCell>
        <mxCell id="lZmtQ1H5wP_6aCsop2Vp-202" value="" style="endArrow=none;html=1;rounded=0;" parent="lZmtQ1H5wP_6aCsop2Vp-186" edge="1">
          <mxGeometry width="50" height="50" relative="1" as="geometry">
            <mxPoint y="84.80000000000001" as="sourcePoint" />
            <mxPoint x="160" y="85" as="targetPoint" />
            <Array as="points" />
          </mxGeometry>
        </mxCell>
        <mxCell id="lZmtQ1H5wP_6aCsop2Vp-352" style="edgeStyle=none;rounded=0;orthogonalLoop=1;jettySize=auto;html=1;fontSize=14;endArrow=none;endFill=0;" parent="WIyWlLk6GJQsqaUBKTNV-1" source="lZmtQ1H5wP_6aCsop2Vp-217" target="lZmtQ1H5wP_6aCsop2Vp-267" edge="1">
          <mxGeometry relative="1" as="geometry" />
        </mxCell>
        <mxCell id="lZmtQ1H5wP_6aCsop2Vp-217" value="Evenement" style="swimlane;fontStyle=0;align=center;verticalAlign=top;childLayout=stackLayout;horizontal=1;startSize=26;horizontalStack=0;resizeParent=1;resizeLast=0;collapsible=1;marginBottom=0;rounded=0;shadow=0;strokeWidth=1;" parent="WIyWlLk6GJQsqaUBKTNV-1" vertex="1">
          <mxGeometry x="70" y="1004" width="170" height="120" as="geometry">
            <mxRectangle x="550" y="140" width="160" height="26" as="alternateBounds" />
          </mxGeometry>
        </mxCell>
        <mxCell id="lZmtQ1H5wP_6aCsop2Vp-232" value="" style="endArrow=none;html=1;rounded=0;" parent="lZmtQ1H5wP_6aCsop2Vp-217" edge="1">
          <mxGeometry width="50" height="50" relative="1" as="geometry">
            <mxPoint y="46" as="sourcePoint" />
            <mxPoint x="170" y="46" as="targetPoint" />
            <Array as="points">
              <mxPoint x="75" y="45.889999999999986" />
            </Array>
          </mxGeometry>
        </mxCell>
        <mxCell id="lZmtQ1H5wP_6aCsop2Vp-260" value="Portier" style="swimlane;fontStyle=1;align=center;verticalAlign=top;childLayout=stackLayout;horizontal=1;startSize=26;horizontalStack=0;resizeParent=1;resizeParentMax=0;resizeLast=0;collapsible=1;marginBottom=0;html=0;" parent="WIyWlLk6GJQsqaUBKTNV-1" vertex="1">
          <mxGeometry x="75" y="740" width="160" height="60" as="geometry" />
        </mxCell>
        <mxCell id="lZmtQ1H5wP_6aCsop2Vp-266" value="" style="line;strokeWidth=1;fillColor=none;align=left;verticalAlign=middle;spacingTop=-1;spacingLeft=3;spacingRight=3;rotatable=0;labelPosition=right;points=[];portConstraint=eastwest;strokeColor=inherit;html=0;" parent="lZmtQ1H5wP_6aCsop2Vp-260" vertex="1">
          <mxGeometry y="26" width="160" height="8" as="geometry" />
        </mxCell>
        <mxCell id="lZmtQ1H5wP_6aCsop2Vp-267" value="scanQrCode()" style="text;strokeColor=none;fillColor=none;align=left;verticalAlign=top;spacingLeft=4;spacingRight=4;overflow=hidden;rotatable=0;points=[[0,0.5],[1,0.5]];portConstraint=eastwest;" parent="lZmtQ1H5wP_6aCsop2Vp-260" vertex="1">
          <mxGeometry y="34" width="160" height="26" as="geometry" />
        </mxCell>
        <mxCell id="lZmtQ1H5wP_6aCsop2Vp-268" value="Admin" style="swimlane;fontStyle=1;align=center;verticalAlign=top;childLayout=stackLayout;horizontal=1;startSize=26;horizontalStack=0;resizeParent=1;resizeParentMax=0;resizeLast=0;collapsible=1;marginBottom=0;html=0;" parent="WIyWlLk6GJQsqaUBKTNV-1" vertex="1">
          <mxGeometry x="-930" y="668" width="160" height="112" as="geometry" />
        </mxCell>
        <mxCell id="lZmtQ1H5wP_6aCsop2Vp-269" value="username" style="text;strokeColor=none;fillColor=none;align=left;verticalAlign=top;spacingLeft=4;spacingRight=4;overflow=hidden;rotatable=0;points=[[0,0.5],[1,0.5]];portConstraint=eastwest;" parent="lZmtQ1H5wP_6aCsop2Vp-268" vertex="1">
          <mxGeometry y="26" width="160" height="26" as="geometry" />
        </mxCell>
        <mxCell id="lZmtQ1H5wP_6aCsop2Vp-270" value="password" style="text;strokeColor=none;fillColor=none;align=left;verticalAlign=top;spacingLeft=4;spacingRight=4;overflow=hidden;rotatable=0;points=[[0,0.5],[1,0.5]];portConstraint=eastwest;" parent="lZmtQ1H5wP_6aCsop2Vp-268" vertex="1">
          <mxGeometry y="52" width="160" height="26" as="geometry" />
        </mxCell>
        <mxCell id="lZmtQ1H5wP_6aCsop2Vp-271" value="" style="line;strokeWidth=1;fillColor=none;align=left;verticalAlign=middle;spacingTop=-1;spacingLeft=3;spacingRight=3;rotatable=0;labelPosition=right;points=[];portConstraint=eastwest;strokeColor=inherit;html=0;" parent="lZmtQ1H5wP_6aCsop2Vp-268" vertex="1">
          <mxGeometry y="78" width="160" height="8" as="geometry" />
        </mxCell>
        <mxCell id="lZmtQ1H5wP_6aCsop2Vp-272" value="chat" style="text;strokeColor=none;fillColor=none;align=left;verticalAlign=top;spacingLeft=4;spacingRight=4;overflow=hidden;rotatable=0;points=[[0,0.5],[1,0.5]];portConstraint=eastwest;" parent="lZmtQ1H5wP_6aCsop2Vp-268" vertex="1">
          <mxGeometry y="86" width="160" height="26" as="geometry" />
        </mxCell>
        <mxCell id="lZmtQ1H5wP_6aCsop2Vp-273" value="Payment" style="swimlane;fontStyle=1;align=center;verticalAlign=top;childLayout=stackLayout;horizontal=1;startSize=26;horizontalStack=0;resizeParent=1;resizeParentMax=0;resizeLast=0;collapsible=1;marginBottom=0;" parent="WIyWlLk6GJQsqaUBKTNV-1" vertex="1">
          <mxGeometry x="-480" y="480" width="160" height="190" as="geometry" />
        </mxCell>
        <mxCell id="lZmtQ1H5wP_6aCsop2Vp-274" value="User_id" style="text;strokeColor=none;fillColor=none;align=left;verticalAlign=top;spacingLeft=4;spacingRight=4;overflow=hidden;rotatable=0;points=[[0,0.5],[1,0.5]];portConstraint=eastwest;" parent="lZmtQ1H5wP_6aCsop2Vp-273" vertex="1">
          <mxGeometry y="26" width="160" height="26" as="geometry" />
        </mxCell>
        <mxCell id="lZmtQ1H5wP_6aCsop2Vp-275" value="date" style="text;strokeColor=none;fillColor=none;align=left;verticalAlign=top;spacingLeft=4;spacingRight=4;overflow=hidden;rotatable=0;points=[[0,0.5],[1,0.5]];portConstraint=eastwest;" parent="lZmtQ1H5wP_6aCsop2Vp-273" vertex="1">
          <mxGeometry y="52" width="160" height="26" as="geometry" />
        </mxCell>
        <mxCell id="lZmtQ1H5wP_6aCsop2Vp-276" value="amount" style="text;strokeColor=none;fillColor=none;align=left;verticalAlign=top;spacingLeft=4;spacingRight=4;overflow=hidden;rotatable=0;points=[[0,0.5],[1,0.5]];portConstraint=eastwest;" parent="lZmtQ1H5wP_6aCsop2Vp-273" vertex="1">
          <mxGeometry y="78" width="160" height="26" as="geometry" />
        </mxCell>
        <mxCell id="lZmtQ1H5wP_6aCsop2Vp-277" value="payment method&#xa;" style="text;strokeColor=none;fillColor=none;align=left;verticalAlign=top;spacingLeft=4;spacingRight=4;overflow=hidden;rotatable=0;points=[[0,0.5],[1,0.5]];portConstraint=eastwest;" parent="lZmtQ1H5wP_6aCsop2Vp-273" vertex="1">
          <mxGeometry y="104" width="160" height="26" as="geometry" />
        </mxCell>
        <mxCell id="lZmtQ1H5wP_6aCsop2Vp-278" value="" style="line;strokeWidth=1;fillColor=none;align=left;verticalAlign=middle;spacingTop=-1;spacingLeft=3;spacingRight=3;rotatable=0;labelPosition=right;points=[];portConstraint=eastwest;strokeColor=inherit;" parent="lZmtQ1H5wP_6aCsop2Vp-273" vertex="1">
          <mxGeometry y="130" width="160" height="8" as="geometry" />
        </mxCell>
        <mxCell id="lZmtQ1H5wP_6aCsop2Vp-279" value="processPayment, " style="text;strokeColor=none;fillColor=none;align=left;verticalAlign=top;spacingLeft=4;spacingRight=4;overflow=hidden;rotatable=0;points=[[0,0.5],[1,0.5]];portConstraint=eastwest;" parent="lZmtQ1H5wP_6aCsop2Vp-273" vertex="1">
          <mxGeometry y="138" width="160" height="26" as="geometry" />
        </mxCell>
        <mxCell id="lZmtQ1H5wP_6aCsop2Vp-280" value="viewPaymentHistory.&#xa;&#xa;" style="text;strokeColor=none;fillColor=none;align=left;verticalAlign=top;spacingLeft=4;spacingRight=4;overflow=hidden;rotatable=0;points=[[0,0.5],[1,0.5]];portConstraint=eastwest;" parent="lZmtQ1H5wP_6aCsop2Vp-273" vertex="1">
          <mxGeometry y="164" width="160" height="26" as="geometry" />
        </mxCell>
        <mxCell id="lZmtQ1H5wP_6aCsop2Vp-281" value="Comment" style="swimlane;fontStyle=1;align=center;verticalAlign=top;childLayout=stackLayout;horizontal=1;startSize=26;horizontalStack=0;resizeParent=1;resizeParentMax=0;resizeLast=0;collapsible=1;marginBottom=0;html=0;" parent="WIyWlLk6GJQsqaUBKTNV-1" vertex="1">
          <mxGeometry x="410" y="1020" width="160" height="34" as="geometry" />
        </mxCell>
        <mxCell id="lZmtQ1H5wP_6aCsop2Vp-286" value="" style="line;strokeWidth=1;fillColor=none;align=left;verticalAlign=middle;spacingTop=-1;spacingLeft=3;spacingRight=3;rotatable=0;labelPosition=right;points=[];portConstraint=eastwest;strokeColor=inherit;html=0;" parent="lZmtQ1H5wP_6aCsop2Vp-281" vertex="1">
          <mxGeometry y="26" width="160" height="8" as="geometry" />
        </mxCell>
        <mxCell id="lZmtQ1H5wP_6aCsop2Vp-321" value="" style="edgeStyle=none;rounded=0;orthogonalLoop=1;jettySize=auto;html=1;fontSize=14;endArrow=block;endFill=0;" parent="WIyWlLk6GJQsqaUBKTNV-1" source="lZmtQ1H5wP_6aCsop2Vp-296" target="lZmtQ1H5wP_6aCsop2Vp-258" edge="1">
          <mxGeometry relative="1" as="geometry" />
        </mxCell>
        <mxCell id="lZmtQ1H5wP_6aCsop2Vp-296" value="Ticket" style="swimlane;fontStyle=1;align=center;verticalAlign=top;childLayout=stackLayout;horizontal=1;startSize=26;horizontalStack=0;resizeParent=1;resizeParentMax=0;resizeLast=0;collapsible=1;marginBottom=0;" parent="WIyWlLk6GJQsqaUBKTNV-1" vertex="1">
          <mxGeometry x="410" y="1150" width="160" height="34" as="geometry" />
        </mxCell>
        <mxCell id="lZmtQ1H5wP_6aCsop2Vp-303" value="" style="line;strokeWidth=1;fillColor=none;align=left;verticalAlign=middle;spacingTop=-1;spacingLeft=3;spacingRight=3;rotatable=0;labelPosition=right;points=[];portConstraint=eastwest;strokeColor=inherit;" parent="lZmtQ1H5wP_6aCsop2Vp-296" vertex="1">
          <mxGeometry y="26" width="160" height="8" as="geometry" />
        </mxCell>
        <mxCell id="lZmtQ1H5wP_6aCsop2Vp-334" style="edgeStyle=none;rounded=0;orthogonalLoop=1;jettySize=auto;html=1;fontSize=14;endArrow=none;endFill=0;" parent="WIyWlLk6GJQsqaUBKTNV-1" source="lZmtQ1H5wP_6aCsop2Vp-310" edge="1">
          <mxGeometry relative="1" as="geometry">
            <mxPoint x="110" y="1120" as="targetPoint" />
          </mxGeometry>
        </mxCell>
        <mxCell id="lZmtQ1H5wP_6aCsop2Vp-310" value="Categorie" style="swimlane;fontStyle=1;align=center;verticalAlign=top;childLayout=stackLayout;horizontal=1;startSize=26;horizontalStack=0;resizeParent=1;resizeParentMax=0;resizeLast=0;collapsible=1;marginBottom=0;" parent="WIyWlLk6GJQsqaUBKTNV-1" vertex="1">
          <mxGeometry x="30" y="1180" width="160" height="34" as="geometry" />
        </mxCell>
        <mxCell id="lZmtQ1H5wP_6aCsop2Vp-314" value="" style="line;strokeWidth=1;fillColor=none;align=left;verticalAlign=middle;spacingTop=-1;spacingLeft=3;spacingRight=3;rotatable=0;labelPosition=right;points=[];portConstraint=eastwest;strokeColor=inherit;" parent="lZmtQ1H5wP_6aCsop2Vp-310" vertex="1">
          <mxGeometry y="26" width="160" height="8" as="geometry" />
        </mxCell>
        <mxCell id="lZmtQ1H5wP_6aCsop2Vp-252" value="Reservation_Client" style="swimlane;fontStyle=1;align=center;verticalAlign=top;childLayout=stackLayout;horizontal=1;startSize=26;horizontalStack=0;resizeParent=1;resizeParentMax=0;resizeLast=0;collapsible=1;marginBottom=0;html=0;" parent="WIyWlLk6GJQsqaUBKTNV-1" vertex="1">
          <mxGeometry x="410" y="1080" width="160" height="34" as="geometry" />
        </mxCell>
        <mxCell id="lZmtQ1H5wP_6aCsop2Vp-258" value="" style="line;strokeWidth=1;fillColor=none;align=left;verticalAlign=middle;spacingTop=-1;spacingLeft=3;spacingRight=3;rotatable=0;labelPosition=right;points=[];portConstraint=eastwest;strokeColor=inherit;html=0;" parent="lZmtQ1H5wP_6aCsop2Vp-252" vertex="1">
          <mxGeometry y="26" width="160" height="8" as="geometry" />
        </mxCell>
        <mxCell id="lZmtQ1H5wP_6aCsop2Vp-323" value="" style="edgeStyle=none;rounded=0;orthogonalLoop=1;jettySize=auto;html=1;exitX=0.25;exitY=0;exitDx=0;exitDy=0;entryX=1;entryY=0.5;entryDx=0;entryDy=0;fontSize=14;endArrow=none;endFill=0;" parent="WIyWlLk6GJQsqaUBKTNV-1" source="lZmtQ1H5wP_6aCsop2Vp-149" target="lZmtQ1H5wP_6aCsop2Vp-288" edge="1">
          <mxGeometry relative="1" as="geometry">
            <mxPoint x="800" y="1000" as="sourcePoint" />
            <mxPoint x="240" y="1004" as="targetPoint" />
            <Array as="points">
              <mxPoint x="720" y="937" />
            </Array>
          </mxGeometry>
        </mxCell>
        <mxCell id="lZmtQ1H5wP_6aCsop2Vp-288" value="Favoris" style="swimlane;fontStyle=1;align=center;verticalAlign=top;childLayout=stackLayout;horizontal=1;startSize=26;horizontalStack=0;resizeParent=1;resizeParentMax=0;resizeLast=0;collapsible=1;marginBottom=0;" parent="WIyWlLk6GJQsqaUBKTNV-1" vertex="1">
          <mxGeometry x="420" y="920" width="160" height="34" as="geometry" />
        </mxCell>
        <mxCell id="lZmtQ1H5wP_6aCsop2Vp-292" value="" style="line;strokeWidth=1;fillColor=none;align=left;verticalAlign=middle;spacingTop=-1;spacingLeft=3;spacingRight=3;rotatable=0;labelPosition=right;points=[];portConstraint=eastwest;strokeColor=inherit;" parent="lZmtQ1H5wP_6aCsop2Vp-288" vertex="1">
          <mxGeometry y="26" width="160" height="8" as="geometry" />
        </mxCell>
        <mxCell id="lZmtQ1H5wP_6aCsop2Vp-335" style="edgeStyle=none;rounded=0;orthogonalLoop=1;jettySize=auto;html=1;exitX=0;exitY=0.5;exitDx=0;exitDy=0;fontSize=14;endArrow=none;endFill=0;entryX=0.75;entryY=1;entryDx=0;entryDy=0;" parent="WIyWlLk6GJQsqaUBKTNV-1" source="lZmtQ1H5wP_6aCsop2Vp-186" target="lZmtQ1H5wP_6aCsop2Vp-217" edge="1">
          <mxGeometry relative="1" as="geometry">
            <mxPoint x="760" y="1310" as="sourcePoint" />
            <mxPoint x="197.5" y="1124" as="targetPoint" />
            <Array as="points">
              <mxPoint x="200" y="1310" />
            </Array>
          </mxGeometry>
        </mxCell>
        <mxCell id="lZmtQ1H5wP_6aCsop2Vp-337" value="&lt;font style=&quot;font-size: 20px;&quot;&gt;*&lt;/font&gt;" style="text;html=1;align=center;verticalAlign=middle;resizable=0;points=[];autosize=1;strokeColor=none;fillColor=none;fontSize=14;" parent="WIyWlLk6GJQsqaUBKTNV-1" vertex="1">
          <mxGeometry x="225" y="970" width="30" height="40" as="geometry" />
        </mxCell>
        <mxCell id="lZmtQ1H5wP_6aCsop2Vp-338" value="&lt;font style=&quot;font-size: 20px;&quot;&gt;*&lt;/font&gt;" style="text;html=1;align=center;verticalAlign=middle;resizable=0;points=[];autosize=1;strokeColor=none;fillColor=none;fontSize=14;" parent="WIyWlLk6GJQsqaUBKTNV-1" vertex="1">
          <mxGeometry x="780" y="970" width="30" height="40" as="geometry" />
        </mxCell>
        <mxCell id="lZmtQ1H5wP_6aCsop2Vp-339" value="&lt;font style=&quot;font-size: 20px;&quot;&gt;*&lt;/font&gt;" style="text;html=1;align=center;verticalAlign=middle;resizable=0;points=[];autosize=1;strokeColor=none;fillColor=none;fontSize=14;" parent="WIyWlLk6GJQsqaUBKTNV-1" vertex="1">
          <mxGeometry x="240" y="1004" width="30" height="40" as="geometry" />
        </mxCell>
        <mxCell id="lZmtQ1H5wP_6aCsop2Vp-342" value="&lt;font style=&quot;font-size: 20px;&quot;&gt;*&lt;/font&gt;" style="text;html=1;align=center;verticalAlign=middle;resizable=0;points=[];autosize=1;strokeColor=none;fillColor=none;fontSize=14;" parent="WIyWlLk6GJQsqaUBKTNV-1" vertex="1">
          <mxGeometry x="730" y="1004" width="30" height="40" as="geometry" />
        </mxCell>
        <mxCell id="lZmtQ1H5wP_6aCsop2Vp-343" value="&lt;font style=&quot;font-size: 20px;&quot;&gt;*&lt;/font&gt;" style="text;html=1;align=center;verticalAlign=middle;resizable=0;points=[];autosize=1;strokeColor=none;fillColor=none;fontSize=14;" parent="WIyWlLk6GJQsqaUBKTNV-1" vertex="1">
          <mxGeometry x="240" y="1060" width="30" height="40" as="geometry" />
        </mxCell>
        <mxCell id="lZmtQ1H5wP_6aCsop2Vp-344" value="&lt;font style=&quot;font-size: 20px;&quot;&gt;*&lt;/font&gt;" style="text;html=1;align=center;verticalAlign=middle;resizable=0;points=[];autosize=1;strokeColor=none;fillColor=none;fontSize=14;" parent="WIyWlLk6GJQsqaUBKTNV-1" vertex="1">
          <mxGeometry x="730" y="1060" width="30" height="40" as="geometry" />
        </mxCell>
        <mxCell id="lZmtQ1H5wP_6aCsop2Vp-345" value="&lt;font style=&quot;font-size: 20px;&quot;&gt;*&lt;/font&gt;" style="text;html=1;align=center;verticalAlign=middle;resizable=0;points=[];autosize=1;strokeColor=none;fillColor=none;fontSize=14;" parent="WIyWlLk6GJQsqaUBKTNV-1" vertex="1">
          <mxGeometry x="195" y="1114" width="30" height="40" as="geometry" />
        </mxCell>
        <mxCell id="lZmtQ1H5wP_6aCsop2Vp-347" value="&lt;font style=&quot;font-size: 14px;&quot;&gt;1&lt;/font&gt;" style="text;html=1;align=center;verticalAlign=middle;resizable=0;points=[];autosize=1;strokeColor=none;fillColor=none;fontSize=20;" parent="WIyWlLk6GJQsqaUBKTNV-1" vertex="1">
          <mxGeometry x="725" y="1270" width="30" height="40" as="geometry" />
        </mxCell>
        <mxCell id="lZmtQ1H5wP_6aCsop2Vp-348" value="&lt;font style=&quot;font-size: 14px;&quot;&gt;Gerer&lt;/font&gt;" style="text;html=1;align=center;verticalAlign=middle;resizable=0;points=[];autosize=1;strokeColor=none;fillColor=none;fontSize=20;" parent="WIyWlLk6GJQsqaUBKTNV-1" vertex="1">
          <mxGeometry x="540" y="1410" width="60" height="40" as="geometry" />
        </mxCell>
        <mxCell id="lZmtQ1H5wP_6aCsop2Vp-349" value="1" style="text;html=1;align=center;verticalAlign=middle;resizable=0;points=[];autosize=1;strokeColor=none;fillColor=none;fontSize=14;" parent="WIyWlLk6GJQsqaUBKTNV-1" vertex="1">
          <mxGeometry x="1015" y="1035" width="30" height="30" as="geometry" />
        </mxCell>
        <mxCell id="lZmtQ1H5wP_6aCsop2Vp-350" value="*" style="text;html=1;align=center;verticalAlign=middle;resizable=0;points=[];autosize=1;strokeColor=none;fillColor=none;fontSize=14;" parent="WIyWlLk6GJQsqaUBKTNV-1" vertex="1">
          <mxGeometry x="105" y="1215" width="30" height="30" as="geometry" />
        </mxCell>
        <mxCell id="lZmtQ1H5wP_6aCsop2Vp-351" value="Organisé" style="text;html=1;align=center;verticalAlign=middle;resizable=0;points=[];autosize=1;strokeColor=none;fillColor=none;fontSize=14;" parent="WIyWlLk6GJQsqaUBKTNV-1" vertex="1">
          <mxGeometry x="420" y="1275" width="80" height="30" as="geometry" />
        </mxCell>
        <mxCell id="lZmtQ1H5wP_6aCsop2Vp-354" value="&lt;font style=&quot;font-size: 20px;&quot;&gt;*&lt;/font&gt;" style="text;html=1;align=center;verticalAlign=middle;resizable=0;points=[];autosize=1;strokeColor=none;fillColor=none;fontSize=14;" parent="WIyWlLk6GJQsqaUBKTNV-1" vertex="1">
          <mxGeometry x="150" y="970" width="30" height="40" as="geometry" />
        </mxCell>
        <mxCell id="lZmtQ1H5wP_6aCsop2Vp-355" value="&lt;font style=&quot;font-size: 20px;&quot;&gt;*&lt;/font&gt;" style="text;html=1;align=center;verticalAlign=middle;resizable=0;points=[];autosize=1;strokeColor=none;fillColor=none;fontSize=14;" parent="WIyWlLk6GJQsqaUBKTNV-1" vertex="1">
          <mxGeometry x="155" y="800" width="30" height="40" as="geometry" />
        </mxCell>
        <mxCell id="lZmtQ1H5wP_6aCsop2Vp-356" value="supervisé" style="text;html=1;align=center;verticalAlign=middle;resizable=0;points=[];autosize=1;strokeColor=none;fillColor=none;fontSize=14;rotation=-90;" parent="WIyWlLk6GJQsqaUBKTNV-1" vertex="1">
          <mxGeometry x="105" y="950" width="80" height="30" as="geometry" />
        </mxCell>
        <mxCell id="I0CHO0QuCaoqUtcBNtWx-0" value="Reservation_portier&#xa;" style="swimlane;fontStyle=1;align=center;verticalAlign=top;childLayout=stackLayout;horizontal=1;startSize=26;horizontalStack=0;resizeParent=1;resizeParentMax=0;resizeLast=0;collapsible=1;marginBottom=0;html=0;" vertex="1" parent="WIyWlLk6GJQsqaUBKTNV-1">
          <mxGeometry x="70" y="866" width="160" height="34" as="geometry" />
        </mxCell>
        <mxCell id="I0CHO0QuCaoqUtcBNtWx-1" value="" style="line;strokeWidth=1;fillColor=none;align=left;verticalAlign=middle;spacingTop=-1;spacingLeft=3;spacingRight=3;rotatable=0;labelPosition=right;points=[];portConstraint=eastwest;strokeColor=inherit;html=0;" vertex="1" parent="I0CHO0QuCaoqUtcBNtWx-0">
          <mxGeometry y="26" width="160" height="8" as="geometry" />
        </mxCell>
      </root>
    </mxGraphModel>
  </diagram>
</mxfile>
